<svg height="495pt" viewBox="-16 0 495 495.984" width="495pt" xmlns="http://www.w3.org/2000/svg" xmlns:xlink="http://www.w3.org/1999/xlink"><linearGradient id="a" gradientUnits="userSpaceOnUse" x1="232.50077" x2="232.50077" y1="495.984" y2="0"><stop offset="0" stop-color="#9f2fff"/><stop offset="1" stop-color="#0bb1d3"/></linearGradient><path d="m48.5 184c0 26.566406 11.878906 50.359375 30.550781 66.511719l-76.480469 201.777343c-3.054687 8.046876-2.734374 16.78125.90625 24.589844 3.765626 8.082032 10.574219 14.175782 19.167969 17.183594 3.726563 1.296875 7.535157 1.914062 11.289063 1.914062 13.664062 0 26.550781-8.167968 31.527344-21.273437l1.109374-2.933594 50.523438 18.503907 16.167969-44.714844-22.113281-8.101563 5.28125-14.617187 22.039062 8.070312 16.277344-43.527344-49.03125-18.894531 36.6875-96.785156c26.121094-1.75 49.113281-14.917969 64.074218-34.582031 8.519532 1.878906 17.238282 2.878906 26.023438 2.878906s17.503906-1.007812 26-2.886719c14.960938 19.671875 37.953125 32.832031 64.070312 34.589844l36.691407 96.785156-49.035157 18.894531 16.28125 43.527344 22.039063-8.070312 5.28125 14.617187-22.113281 8.101563 16.167968 44.714844 50.527344-18.503907 1.113282 2.941407c4.96875 13.113281 17.855468 21.273437 31.519531 21.273437 3.753906 0 7.5625-.617187 11.289062-1.914063 8.59375-3.007812 15.40625-9.109374 19.167969-17.183593 3.640625-7.816407 3.960938-16.542969.910156-24.589844l-76.484375-201.777344c18.695313-16.160156 30.574219-39.953125 30.574219-66.519531 0-40.902344-28.097656-75.28125-65.976562-85.097656-10.007813-56.125-59.0625-98.902344-118.023438-98.902344s-108.015625 42.777344-118.023438 98.902344c-37.878906 9.816406-65.976562 44.195312-65.976562 85.097656zm76.984375 87.230469-45.703125 120.59375-32.664062-11.886719 45.414062-119.816406c9.929688 5.75 21.066406 9.613281 32.953125 11.109375zm-51.375 135.546875-16.875 44.519531-32.636719-11.960937 16.855469-44.457032zm-23.601563 62.261718c-3.296874 8.679688-13.449218 13.105469-22.574218 9.921876-4.496094-1.5625-8.027344-4.703126-9.945313-8.832032-1.808593-3.863281-1.96875-8.183594-.457031-12.167968l1.382812-3.648438 32.648438 11.953125zm83.726563-72.421874-5.167969 13.816406-22.191406-8.136719-16.167969 44.710937 22.113281 8.105469-5.28125 14.613281-35.269531-12.917968 27.804688-73.367188zm223.242187 73.109374-5.28125-14.613281 22.113282-8.105469-16.167969-44.710937-22.191406 8.136719-5.167969-13.816406 34.167969-13.175782 27.816406 73.367188zm33.421876-62.949218 32.664062-11.890625 16.859375 44.457031-32.640625 11.960938zm56.113281 63.351562c-1.917969 4.136719-5.457031 7.269532-9.945313 8.832032-9.132812 3.183593-19.277344-1.242188-22.566406-9.921876l-1.046875-2.773437 32.648437-11.953125 1.382813 3.648438c1.503906 3.976562 1.335937 8.296874-.472656 12.167968zm-29.121094-90.199218-32.664063 11.886718-45.710937-120.585937c11.886719-1.496094 23.023437-5.359375 32.953125-11.117188zm-17.390625-195.929688c0 39.703125-32.296875 72-72 72s-72-32.296875-72-72 32.296875-72 72-72c2.574219 0 5.113281.152344 7.617188.414062.183593 2.515626.382812 5.027344.382812 7.585938 0 2.886719-.304688 5.710938-.535156 8.558594-2.449219-.328125-4.929688-.558594-7.464844-.558594-30.871094 0-56 25.128906-56 56s25.128906 56 56 56 56-25.128906 56-56c0-22.574219-13.464844-42.03125-32.761719-50.878906.472657-4.328125.761719-8.707032.761719-13.121094 0-1.304688-.152344-2.574219-.199219-3.871094 28.023438 9.855469 48.199219 36.519532 48.199219 67.871094zm-106.601562 19.695312c-3.335938-5.839843-5.398438-12.503906-5.398438-19.695312 0-22.054688 17.945312-40 40-40 1.71875 0 3.351562.296875 5.015625.503906-5.695313 23.648438-19.617187 44.519532-39.617187 59.191406zm54.890624-53.976562c11.742188 6.984375 19.710938 19.664062 19.710938 34.28125 0 22.054688-17.945312 40-40 40-8.984375 0-17.199219-3.089844-23.886719-8.113281 22.070313-16.582031 37.511719-39.902344 44.175781-66.167969zm-116.289062-133.71875c49.167969 0 90.375 34.335938 101.160156 80.265625-1.71875-.105469-3.417968-.265625-5.160156-.265625-48.519531 0-88 39.480469-88 88 0 13.800781 3.28125 26.808594 8.96875 38.449219-11.207031 1.824219-22.710938 1.832031-33.929688 0 5.679688-11.640625 8.960938-24.65625 8.960938-38.449219 0-48.519531-39.480469-88-88-88-1.742188 0-3.441406.160156-5.160156.265625 10.785156-45.929687 51.992187-80.265625 101.160156-80.265625zm-119.800781 100.128906c-.046875 1.296875-.199219 2.566406-.199219 3.871094 0 4.425781.289062 8.792969.761719 13.121094-19.296875 8.847656-32.761719 28.304687-32.761719 50.878906 0 30.871094 25.128906 56 56 56s56-25.128906 56-56-25.128906-56-56-56c-2.535156 0-5.007812.230469-7.457031.558594-.230469-2.847656-.542969-5.671875-.542969-8.558594 0-2.558594.199219-5.070312.382812-7.585938 2.503907-.261718 5.042969-.414062 7.617188-.414062 39.703125 0 72 32.296875 72 72s-32.296875 72-72 72-72-32.296875-72-72c0-31.351562 20.175781-58.015625 48.199219-67.871094zm58.402343 87.566406c-20.019531-14.671874-33.921874-35.519531-39.609374-59.191406 1.65625-.207031 3.296874-.503906 5.007812-.503906 22.054688 0 40 17.945312 40 40 0 7.191406-2.0625 13.855469-5.398438 19.695312zm-10.699218 12.175782c-6.6875 5.03125-14.910156 8.128906-23.902344 8.128906-22.054688 0-40-17.945312-40-40 0-14.617188 7.96875-27.296875 19.703125-34.273438 6.65625 26.289063 22.097656 49.5625 44.199219 66.144532zm0 0" fill="url(#a)"/></svg>